#!OML:ASF E:\basketball\basketball\Project 1\Capture day 1\Session 1\Subject.ASF
:FULLY-SPECIFIED
:DEGREES
34
root -30.0219 13.2074 13.7386 177.977 55.1038 171.6
lowerback 18.6511 -3.58382 1.48159
upperback 9.51608 -3.35627 1.94581
thorax -0.17929 -1.23942 1.82968
lowerneck -11.3837 5.25215 -4.71176
upperneck -13.0802 8.31591 -2.15236
head -2.37632 4.82084 0.174294
rclavicle 4.77083e-015 -1.82882e-014
rhumerus -14.0005 30.0586 -90.7678
rradius 110.71
rwrist 15.1015
rhand -33.6749 10.5704
rfingers 7.12502
rthumb -6.86572 -19.2983
lclavicle 4.77083e-015 -1.82882e-014
lhumerus -28.083 7.38977 92.4239
lradius 70.7123
lwrist -123.173
lhand -68.2585 84.8456
lfingers 7.12502
lthumb -39.9725 -110.08
rfemur -35.0196 -24.7915 -9.69359
rtibia 68.7768
rfoot -16.8318 -11.9758
rtoes -43.5048
lfemur -16.2555 21.6138 -8.74103
ltibia 85.0893
lfoot -4.94121 29.0976
ltoes 44.4343
35
root -29.9196 13.1529 13.6719 178.156 55.4043 171.958
lowerback 20.0212 -3.48714 2.39725
upperback 9.56429 -2.94729 2.21907
thorax -0.86303 -0.984967 1.58703
lowerneck -10.6985 5.10891 -4.40155
upperneck -14.2553 8.06826 -2.73589
head -2.84516 4.75824 -0.118932
rclavicle 6.20208e-014 -9.54166e-014
rhumerus -11.9051 32.3577 -89.6853
rradius 109.434
rwrist 17.3088
rhand -34.007 9.71635
rfingers 7.12502
rthumb -7.18636 -20.1416
lclavicle 6.20208e-014 -9.54166e-014
lhumerus -30.2057 9.29201 91.1054
lradius 68.217
lwrist -109.286
lhand -77.3467 194.075
lfingers 7.12502
lthumb -48.4409 -187.93
rfemur -34.6872 -25.1816 -9.75168
rtibia 69.2698
rfoot -17.3158 -11.7939
rtoes -44.1846
lfemur -18.1999 22.5083 -8.79736
ltibia 87.615
lfoot -5.9378 28.9432
ltoes 42.8974
36
root -29.8142 13.1303 13.5909 178.633 55.8169 172.626
lowerback 21.2446 -3.28271 3.71436
upperback 9.83868 -2.28595 2.35141
thorax -1.23215 -0.580431 0.88874
lowerneck -10.7869 4.80124 -4.67686
upperneck -15.058 7.79557 -2.4469
head -3.13364 4.69042 -0.00554431
rclavicle 4.29375e-014 7.95139e-015
rhumerus -9.4634 33.7634 -88.273
rradius 107.908
rwrist 19.3316
rhand -34.2911 8.96556
rfingers 7.12502
rthumb -7.46055 -20.8829
lclavicle 4.29375e-014 7.95139e-015
lhumerus -31.8383 9.74712 89.881
lradius 64.241
lwrist -90.15
lhand -64.9761 125.134
lfingers 7.12502
lthumb -36.875 -260.963
rfemur -34.4921 -25.5564 -9.40873
rtibia 69.6722
rfoot -17.3092 -12.6453
rtoes -46.5099
lfemur -20.1869 23.6339 -8.80366
ltibia 89.9085
lfoot -5.77769 28.3824
ltoes 43.504
37
root -29.7138 13.0807 13.5223 179.439 56.2805 173.494
lowerback 22.447 -3.00884 4.8826
upperback 9.88647 -1.54877 2.62102
thorax -1.78863 -0.167715 0.383714
lowerneck -10.3648 4.59892 -4.91138
upperneck -15.7598 7.58592 -2.28844
head -3.47039 4.63888 0.0477965
rclavicle -3.81667e-014 -3.49861e-014
rhumerus -7.55593 34.893 -86.7071
rradius 106.213
rwrist 21.3413
rhand -34.5113 8.31409
rfingers 7.12502
rthumb -7.67307 -21.5267
lclavicle -3.81667e-014 -3.49861e-014
lhumerus -33.5325 10.0996 88.8991
lradius 60.2631
lwrist -76.1845
lhand -53.1344 122.541
lfingers 7.12502
lthumb -25.5945 -265.759
rfemur -34.2167 -25.341 -9.18498
rtibia 69.8803
rfoot -18.7992 -11.22
rtoes -44.2678
lfemur -22.7374 24.9614 -8.73979
ltibia 92.3633
lfoot -4.69887 27.3901
ltoes 45.6884
38
root -29.6139 13.0503 13.4417 180.433 56.5558 174.4
lowerback 23.4992 -2.83907 5.94203
upperback 9.91672 -0.942396 3.00885
thorax -2.26174 0.168929 0.0762892
lowerneck -10.4888 4.21167 -5.62675
upperneck -16.0643 7.23036 -1.76341
head -3.609 4.51667 0.332281
rclavicle 4.85035e-014 -1.7175e-013
rhumerus -5.6049 35.8943 -84.7361
rradius 104.376
rwrist 23.2837
rhand -34.7059 7.63968
rfingers 7.12502
rthumb -7.86094 -22.1942
lclavicle 4.85035e-014 -1.7175e-013
lhumerus -34.9563 10.95 88.0335
lradius 56.1253
lwrist -65.1995
lhand -42.9994 124.52
lfingers 7.12502
lthumb -15.8577 -264.851
rfemur -34.3323 -25.8702 -8.57536
rtibia 70.2126
rfoot -18.0522 -12.9728
rtoes -47.7089
lfemur -25.5604 26.0934 -8.91367
ltibia 94.6516
lfoot -3.94197 26.326
ltoes 47.4269
39
root -29.5146 13.0084 13.3592 181.254 56.583 175.062
lowerback 24.4063 -2.58571 7.31992
upperback 9.98772 -0.178118 2.9854
thorax -2.59001 0.595116 -0.911366
lowerneck -10.5045 3.81043 -5.42309
upperneck -16.4856 6.74373 -1.68066
head -3.74068 4.30064 0.31659
rclavicle 3.18055e-014 1.74931e-014
rhumerus -4.02642 35.8122 -83.3067
rradius 102.042
rwrist 24.0164
rhand -34.9076 7.30993
rfingers 7.12502
rthumb -8.0556 -22.5165
lclavicle 3.18055e-014 1.74931e-014
lhumerus -36.1574 10.1477 86.9744
lradius 52.0331
lwrist -53.1956
lhand -31.9167 126.271
lfingers 7.12502
lthumb -5.16826 -263.646
rfemur -33.9413 -26.2651 -8.52053
rtibia 70.3436
rfoot -19.0495 -12.357
rtoes -47.2892
lfemur -28.6249 26.9442 -9.35356
ltibia 96.9785
lfoot -4.0873 25.3152
ltoes 47.2269
40
root -29.4102 12.9689 13.2614 181.934 56.7362 175.492
lowerback 25.0593 -2.32824 8.24063
upperback 10.1357 0.486544 3.09684
thorax -2.684 0.963698 -1.48193
lowerneck -10.5773 3.5168 -5.74906
upperneck -16.913 6.47309 -1.43235
head -3.90214 4.22 0.444626
rclavicle -3.49861e-014 2.06736e-014
rhumerus -2.30212 35.66 -81.4409
rradius 99.1715
rwrist 24.8532
rhand -35.0258 7.17884
rfingers 7.12502
rthumb -8.16963 -22.6432
lclavicle -3.49861e-014 2.06736e-014
lhumerus -37.2616 9.68673 86.2695
lradius 47.7784
lwrist -41.3485
lhand -21.0081 129.687
lfingers 7.12502
lthumb 5.36652 -260.225
rfemur -33.7917 -26.733 -8.51151
rtibia 70.4765
rfoot -19.4518 -12.4815
rtoes -48.0937
lfemur -31.7928 27.6657 -10.1945
ltibia 99.1577
lfoot -4.37646 24.5428
ltoes 45.708
41
root -29.2953 12.9297 13.1599 182.056 57.445 175.656
lowerback 25.9834 -1.80243 8.7294
upperback 10.5415 1.44428 3.1003
thorax -2.58248 1.49366 -2.01237
lowerneck -10.8078 3.12824 -6.00122
upperneck -17.6352 6.10683 -1.36271
head -4.13202 4.12363 0.499098
rclavicle -1.90833e-014 6.83819e-014
rhumerus -0.13481 34.8832 -79.3034
rradius 95.6561
rwrist 25.5838
rhand -35.0549 6.93724
rfingers 7.12502
rthumb -8.19778 -22.8837
lclavicle -1.90833e-014 6.83819e-014
lhumerus -38.0026 10.8721 84.2194
lradius 43.753
lwrist -40.5261
lhand -16.7383 138.095
lfingers 7.12502
lthumb 9.48787 -251.671
rfemur -33.3685 -26.4899 -8.7946
rtibia 70.4513
rfoot -20.2885 -11.8805
rtoes -47.8432
lfemur -34.2642 28.8477 -10.9474
ltibia 101.047
lfoot -4.8571 23.6608
ltoes 46.6515
42
root -29.1834 12.9054 13.0617 182.113 57.8972 175.83
lowerback 27.1667 -1.2971 9.16199
upperback 10.8468 2.39753 3.0396
thorax -2.68867 2.00961 -2.60266
lowerneck -11.6304 2.60987 -5.94993
upperneck -17.725 5.57107 -1.17775
head -4.0094 3.89206 0.57226
rclavicle -4.45278e-014 -4.92986e-014
rhumerus 2.11692 33.7118 -77.3156
rradius 91.0458
rwrist 25.1024
rhand -35.0914 6.71075
rfingers 7.12502
rthumb -8.23296 -23.1088
lclavicle -4.45278e-014 -4.92986e-014
lhumerus -38.8672 12.1907 81.4984
lradius 40.1214
lwrist -42.0633
lhand -12.7893 147.065
lfingers 7.12502
lthumb 13.2963 -242.49
rfemur -32.7754 -26.3614 -9.06016
rtibia 70.3498
rfoot -20.6132 -11.9009
rtoes -48.0557
lfemur -36.8191 30.1106 -11.6968
ltibia 102.669
lfoot -4.99642 22.6101
ltoes 46.4118
43
root -29.0641 12.8768 12.9585 182.665 57.2449 176.011
lowerback 27.4876 -1.1663 9.60428
upperback 10.8896 2.75137 3.09511
thorax -2.73169 2.20527 -2.89702
lowerneck -12.3318 2.08524 -5.63546
upperneck -17.508 4.92163 -1.11054
head -3.77884 3.55869 0.561941
rclavicle 1.74931e-014 -4.13472e-014
rhumerus 4.23424 33.0965 -75.6011
rradius 85.4913
rwrist 23.6166
rhand -35.4016 6.56278
rfingers 7.12502
rthumb -8.53236 -23.2448
lclavicle 1.74931e-014 -4.13472e-014
lhumerus -40.2744 12.9832 79.04
lradius 36.5859
lwrist -40.1004
lhand -6.39909 155.092
lfingers 7.12502
lthumb 19.4487 -233.956
rfemur -31.8575 -27.2237 -9.45769
rtibia 70.1948
rfoot -21.1001 -11.7613
rtoes -47.8397
lfemur -40.5617 30.3351 -13.0476
ltibia 104.221
lfoot -4.53319 21.7454
ltoes 46.8603
44
root -28.9507 12.8491 12.855 183.068 57.433 176.528
lowerback 28.3698 -0.866579 9.78869
upperback 11.0561 3.3399 3.10698
thorax -2.87926 2.51709 -3.18131
lowerneck -11.9797 2.25215 -6.23704
upperneck -17.5969 5.26856 -0.485009
head -3.92686 3.75864 0.864146
rclavicle 2.54444e-014 -3.49861e-014
rhumerus 6.55663 30.9786 -74.4575
rradius 79.0868
rwrist 25.9778
rhand -35.1735 5.93127
rfingers 7.12502
rthumb -8.31225 -23.8852
lclavicle 2.54444e-014 -3.49861e-014
lhumerus -41.7854 13.4607 76.7813
lradius 33.2989
lwrist -37.086
lhand 0.421256 163.103
lfingers 7.12502
lthumb 25.9938 -225.139
rfemur -31.0093 -27.1597 -9.57878
rtibia 69.9342
rfoot -21.3717 -12.0274
rtoes -48.1074
lfemur -43.5041 31.3197 -13.9208
ltibia 105.573
lfoot -4.82734 20.8625
ltoes 45.8463
45
root -28.8277 12.8229 12.746 183.768 57.4651 177.328
lowerback 28.9548 -0.604835 10.1359
upperback 11.3015 3.88125 3.03478
thorax -2.77521 2.82976 -3.62477
lowerneck -12.2129 1.95625 -6.02873
upperneck -17.7617 4.91867 -0.445746
head -3.92842 3.5992 0.843065
rclavicle 6.83819e-014 -9.06458e-014
rhumerus 9.14215 29.0008 -73.6116
rradius 72.03
rwrist 27.0367
rhand -35.0169 5.1447
rfingers 7.12502
rthumb -8.16104 -24.6777
lclavicle 6.83819e-014 -9.06458e-014
lhumerus -43.1757 13.594 74.2975
lradius 30.5327
lwrist -35.7043
lhand 6.24224 171.028
lfingers 7.12502
lthumb 31.5541 -216.267
rfemur -29.9866 -27.0452 -9.55988
rtibia 69.5889
rfoot -22.1246 -11.7549
rtoes -47.4657
lfemur -46.5554 32.1751 -14.7778
ltibia 106.685
lfoot -5.16644 20.1388
ltoes 46.1835
46
root -28.6982 12.7895 12.6252 184.665 57.4781 178.142
lowerback 29.1111 -0.294194 10.4384
upperback 11.5831 4.39991 2.90765
thorax -2.42206 3.1434 -4.07235
lowerneck -12.6268 1.73528 -5.72631
upperneck -17.7539 4.67322 -0.369763
head -3.83774 3.47835 0.82398
rclavicle 1.59028e-015 -8.42847e-014
rhumerus 12.1768 26.6425 -72.9916
rradius 64.2374
rwrist 28.2983
rhand -34.864 4.35761
rfingers 7.12502
rthumb -8.01348 -25.4705
lclavicle 1.59028e-015 -8.42847e-014
lhumerus -44.583 13.3411 71.8138
lradius 28.1323
lwrist -34.9562
lhand 11.7212 178.814
lfingers 7.12502
lthumb 36.757 -207.313
rfemur -29.0144 -26.9899 -9.55057
rtibia 69.1427
rfoot -22.8792 -11.1969
rtoes -46.7812
lfemur -49.9466 32.8019 -16.044
ltibia 107.603
lfoot -5.16151 19.9446
ltoes 49.2885
47
root -28.5631 12.773 12.4954 185.653 57.292 179.139
lowerback 29.3236 -0.0593216 10.6349
upperback 11.788 4.80974 2.85847
thorax -2.20622 3.38891 -4.35003
lowerneck -12.8304 1.63196 -5.97261
upperneck -17.6399 4.64389 0.0697492
head -3.78211 3.4748 1.0194
rclavicle 4.92986e-014 -4.29375e-014
rhumerus 15.1322 23.589 -73.2915
rradius 55.7982
rwrist 30.6824
rhand -34.4332 3.80012
rfingers 7.12502
rthumb -7.59767 -26.0434
lclavicle 4.92986e-014 -4.29375e-014
lhumerus -46.2268 12.7688 69.6211
lradius 26.0137
lwrist -34.1756
lhand 17.1499 186.202
lfingers 7.12502
lthumb 41.8713 -198.431
rfemur -27.9098 -27.1896 -9.36868
rtibia 68.5928
rfoot -22.7111 -12.3769
rtoes -48.4999
lfemur -53.3008 33.0749 -17.3743
ltibia 108.227
lfoot -5.24774 20.1805
ltoes 50.353
48
root -28.4231 12.752 12.3721 187.232 57.0308 180.923
lowerback 29.9017 0.179332 10.9968
upperback 11.6775 5.31573 2.93564
thorax -2.49374 3.6277 -4.65316
lowerneck -13.0854 1.28737 -5.45391
upperneck -17.4357 4.112 -0.102047
head -3.62285 3.1777 0.877956
rclavicle -1.35174e-013 1.17681e-013
rhumerus 17.5211 19.3552 -74.9042
rradius 46.8188
rwrist 34.1075
rhand -34.2734 3.49487
rfingers 7.12502
rthumb -7.44348 -26.3542
lclavicle -1.35174e-013 1.17681e-013
lhumerus -48.2308 11.0255 68.2933
lradius 24.4262
lwrist -32.5275
lhand 22.3594 192.497
lfingers 7.12502
lthumb 46.7263 -190.289
rfemur -26.5589 -26.9353 -8.71296
rtibia 67.8074
rfoot -22.8387 -13.0557
rtoes -49.1442
lfemur -56.7085 33.3099 -18.2571
ltibia 108.658
lfoot -5.14857 20.6744
ltoes 50.1406
